<svg xmlns="http://www.w3.org/2000/svg" width="2500" height="538" viewBox="0 0 200.002 43.026"><g fill="#aaa"><path d="M64.73 17.424v-5.521h-5.538V3.034h-7.883v8.868h-4.258v5.521h4.258v12.275c0 7.5 4.819 11.721 13.421 11.783V34.94c-3.647-.074-5.538-2.281-5.538-6.44V17.424h5.538zM170.458 11.899V40.48h-4.698V11.899h4.698zM180.76 11.899v4.534h.112c1.954-3.465 5.047-5.198 9.288-5.198 1.879 0 3.447.259 4.699.776 1.252.515 2.267 1.235 3.043 2.155.771.922 1.317 2.019 1.63 3.289.313 1.272.47 2.681.47 4.229V40.48h-4.699V21.131c0-1.771-.517-3.169-1.546-4.201-1.032-1.031-2.454-1.548-4.258-1.548-1.437 0-2.681.221-3.733.663-1.049.445-1.924 1.07-2.623 1.88a8.06 8.06 0 0 0-1.578 2.848c-.352 1.087-.525 2.276-.525 3.565V40.48h-4.698V11.899h4.418zM88.533 40.48v-3.979h-.168c-.993 1.658-2.283 2.856-3.869 3.593-1.585.737-3.207 1.106-4.868 1.106-2.099 0-3.821-.278-5.165-.831-1.348-.554-2.407-1.335-3.18-2.35-.775-1.013-1.318-2.246-1.633-3.703-.312-1.457-.468-3.067-.468-4.839v-17.58h7.849v16.144c0 2.357.368 4.119 1.105 5.278.737 1.162 2.045 1.743 3.924 1.743 2.139 0 3.687-.636 4.644-1.908.961-1.27 1.44-3.36 1.44-6.272V11.899h7.851V40.48h-7.462zM108.688 11.899v3.981h.166c.992-1.659 2.285-2.867 3.867-3.621 1.586-.755 3.211-1.133 4.867-1.133 2.1 0 3.825.286 5.172.855 1.344.572 2.403 1.364 3.178 2.378.773 1.014 1.316 2.249 1.631 3.705.312 1.456.471 3.068.471 4.836v17.58h-7.85V24.338c0-2.358-.373-4.118-1.108-5.281-.739-1.16-2.047-1.74-3.924-1.74-2.138 0-3.687.636-4.646 1.907-.957 1.273-1.437 3.365-1.437 6.276v14.98h-7.851V11.899h7.464zM141.668 33.626c1.18 1.143 2.875 1.714 5.086 1.714 1.583 0 2.95-.396 4.092-1.188 1.143-.793 1.846-1.631 2.1-2.516h6.912c-1.104 3.427-2.803 5.88-5.086 7.352-2.285 1.474-5.049 2.213-8.289 2.213-2.252 0-4.277-.362-6.084-1.079-1.807-.719-3.338-1.742-4.588-3.068-1.252-1.327-2.222-2.911-2.902-4.754-.682-1.843-1.024-3.871-1.024-6.082 0-2.138.353-4.126 1.05-5.971.701-1.843 1.695-3.437 2.988-4.783 1.289-1.345 2.829-2.404 4.616-3.179 1.788-.773 3.769-1.159 5.944-1.159 2.432 0 4.552.47 6.356 1.408 1.804.94 3.288 2.203 4.45 3.789 1.161 1.586 2.001 3.39 2.518 5.418.516 2.025.697 4.145.553 6.356h-20.621c.104 2.543.747 4.386 1.929 5.529zm8.872-15.039c-.938-1.031-2.367-1.548-4.282-1.548-1.255 0-2.296.216-3.126.637-.831.425-1.491.949-1.987 1.575-.5.627-.85 1.291-1.055 1.99-.201.701-.322 1.327-.357 1.881h12.771c-.369-1.991-1.022-3.501-1.964-4.535zM171.143 3.034a3.034 3.034 0 1 1-6.07-.002 3.034 3.034 0 0 1 6.07.002"/><g><path d="M19.249 15.023a6.895 6.895 0 0 1-6.887-6.886 6.832 6.832 0 0 1 2.014-4.869 6.844 6.844 0 0 1 4.87-2.017 6.895 6.895 0 0 1 6.887 6.887 6.89 6.89 0 0 1-6.884 6.885M0 17.779c0-.361.293-.654.655-.654h18.536c3.344 0 6.064 2.71 6.064 6.042v5.384a.657.657 0 0 1-.658.657c-.011 0-.025 0-.038.002l-18.518-.003A6.049 6.049 0 0 1 0 23.164v-5.385zM33.033 17.038h5.311c.36 0 .654.295.654.654v5.388a6.047 6.047 0 0 1-6.041 6.041l-5.297-.001a.656.656 0 0 1-.671-.654v-5.385a6.05 6.05 0 0 1 6.044-6.043M24.598 30.944H13.899a.657.657 0 0 0-.655.655v10.774c0 .367.296.652.672.652l5.296.001a6.05 6.05 0 0 0 6.044-6.043v-5.385a.659.659 0 0 0-.658-.654"/></g></g></svg>