<?xml version="1.0" encoding="UTF-8" standalone="no"?>
<svg
   xmlns:dc="http://purl.org/dc/elements/1.1/"
   xmlns:cc="http://creativecommons.org/ns#"
   xmlns:rdf="http://www.w3.org/1999/02/22-rdf-syntax-ns#"
   xmlns:svg="http://www.w3.org/2000/svg"
   xmlns="http://www.w3.org/2000/svg"
   xmlns:sodipodi="http://sodipodi.sourceforge.net/DTD/sodipodi-0.dtd"
   xmlns:inkscape="http://www.inkscape.org/namespaces/inkscape"
   version="1.1"
   id="Layer_1"
   x="0px"
   y="0px"
   width="803"
   height="149"
   viewBox="0 0 803 149"
   enable-background="new 0 0 792 612"
   xml:space="preserve"
   inkscape:version="0.91 r13725"
   sodipodi:docname="Twitter_2010_logo_-_from_Commons.svg"><metadata
     id="metadata17"><rdf:RDF><cc:Work
         rdf:about=""><dc:format>image/svg+xml</dc:format><dc:type
           rdf:resource="http://purl.org/dc/dcmitype/StillImage" /></cc:Work></rdf:RDF></metadata><defs
     id="defs15" /><sodipodi:namedview
     pagecolor="#ffffff"
     bordercolor="#666666"
     borderopacity="1"
     objecttolerance="10"
     gridtolerance="10"
     guidetolerance="10"
     inkscape:pageopacity="0"
     inkscape:pageshadow="2"
     inkscape:window-width="2560"
     inkscape:window-height="1357"
     id="namedview13"
     showgrid="false"
     inkscape:zoom="0.36239103"
     inkscape:cx="-64.847079"
     inkscape:cy="74.5"
     inkscape:window-x="0"
     inkscape:window-y="0"
     inkscape:window-maximized="1"
     inkscape:current-layer="Layer_1" /><path
     d="m 501.78933,91.543692 c -0.11695,0.02052 -0.23801,0.01231 -0.35701,0.03283 l 0.61759,-0.100539 c -0.0964,0.01436 -0.16414,0.05335 -0.26058,0.06771 z"
     id="path7"
     inkscape:connector-curvature="0"
     style="fill:#aaaaaa;fill-opacity:1"
     clip-path="none" /><path
     d="m 87.907873,120.60762 c 0,4.02976 -1.444476,7.48502 -4.335481,10.35961 -2.891004,2.87869 -6.354465,4.31701 -10.40064,4.31701 H 44.040111 c -12.136474,0 -22.508388,-4.28829 -31.121899,-12.87307 C 4.3026488,113.82433 -3.067e-6,103.4914 -3.067e-6,91.39391 V 32.558172 c 0,-4.146714 1.434217267,-7.628641 4.302651867,-10.453987 2.8684346,-2.821243 6.3729312,-4.234942 10.5093862,-4.234942 4.015398,0 7.466547,1.440372 10.330878,4.319066 2.872539,2.87459 4.312911,6.325739 4.312911,10.359604 v 21.303974 h 41.475348 c 3.765077,0 6.990527,1.333679 9.682506,4.005139 2.689927,2.667357 4.029761,5.866134 4.029761,9.604537 0,3.730196 -1.339834,6.93718 -4.019502,9.606588 -2.679668,2.665305 -5.898962,4.001036 -9.647625,4.001036 H 29.455824 v 10.31036 c 0,4.044123 1.411648,7.478858 4.249305,10.310363 2.833554,2.82534 6.274444,4.23904 10.322671,4.23904 h 29.137797 c 4.044123,0 7.515791,1.44243 10.406795,4.31907 2.891005,2.87869 4.335481,6.33189 4.335481,10.3596 z"
     id="path9"
     inkscape:connector-curvature="0"
     style="fill:#aaaaaa;fill-opacity:1"
     clip-path="none" /><path
     d="m 429.08949,120.60762 c 0,4.02976 -1.44447,7.48502 -4.33342,10.35961 -2.88896,2.87869 -6.35447,4.31701 -10.39859,4.31701 h -13.23215 c -12.13647,0 -22.50838,-4.28829 -31.12189,-12.87307 -8.61352,-8.58479 -12.91617,-18.91977 -12.91617,-31.01726 V 32.558172 c 0,-4.146714 1.43217,-7.628641 4.30265,-10.453987 2.86844,-2.821243 6.37088,-4.234942 10.50939,-4.234942 4.01335,0 7.46655,1.440372 10.32883,4.319066 2.87254,2.87459 4.31291,6.325739 4.31291,10.359604 v 21.303974 h 25.57585 c 3.76507,0 6.99052,1.33573 9.68045,4.005139 2.69198,2.667357 4.02976,5.866134 4.02976,9.604537 0,3.730196 -1.33778,6.935128 -4.01745,9.604536 -2.67967,2.665306 -5.89896,4.001036 -9.64557,4.001036 H 386.539 v 10.312412 c 0,4.044123 1.41164,7.478858 4.2493,10.310363 2.83355,2.82534 6.27445,4.23904 10.32062,4.23904 h 13.24035 c 4.04207,0 7.51579,1.44243 10.40474,4.31907 2.89101,2.87869 4.33548,6.33189 4.33548,10.3596 z"
     id="path11"
     inkscape:connector-curvature="0"
     style="fill:#aaaaaa;fill-opacity:1"
     clip-path="none" /><path
     d="m 352.07264,120.60762 c 0,4.02976 -1.44447,7.48502 -4.33343,10.35961 -2.88895,2.87869 -6.35446,4.31701 -10.39859,4.31701 h -13.23214 c -12.13647,0 -22.50839,-4.28829 -31.11985,-12.87307 -8.61351,-8.58684 -12.91616,-18.91977 -12.91616,-31.01726 V 32.558172 c 0,-4.146714 1.43422,-7.628641 4.30265,-10.453987 2.86844,-2.821243 6.37088,-4.234942 10.50939,-4.234942 4.01335,0 7.46655,1.440372 10.32883,4.319066 2.87253,2.87459 4.31291,6.325739 4.31291,10.359604 v 21.303974 h 25.57585 c 3.76507,0 6.99052,1.33573 9.68045,4.005139 2.69198,2.667357 4.02976,5.866134 4.02976,9.604537 0,3.730196 -1.33778,6.935128 -4.01745,9.604536 -2.67967,2.665306 -5.89896,4.001036 -9.64557,4.001036 H 309.5283 v 10.312412 c 0,4.044123 1.41165,7.478858 4.2493,10.310363 2.83356,2.82534 6.27445,4.23904 10.32062,4.23904 h 13.24035 c 4.04207,0 7.51579,1.44243 10.40475,4.31907 2.88279,2.87869 4.32932,6.33189 4.32932,10.3596 z"
     id="path13"
     inkscape:connector-curvature="0"
     style="fill:#aaaaaa;fill-opacity:1"
     clip-path="none" /><path
     d="m 229.95078,94.219256 c 0,11.317804 -4.0236,20.992094 -12.08107,29.022894 -8.05542,8.02875 -17.75639,12.04209 -29.10497,12.04209 -10.38217,0 -19.51684,-3.49834 -27.41017,-10.50323 -7.78253,7.00489 -16.86795,10.50323 -27.24602,10.50323 -11.34653,0 -21.05366,-4.01334 -29.11113,-12.04209 C 96.944058,115.21341 92.9184,105.53706 92.9184,94.219256 V 65.536962 c 0,-3.88203 1.348042,-7.138257 4.054383,-9.778941 2.69403,-2.642735 5.939997,-3.964102 9.717387,-3.964102 3.78559,0 7.02541,1.321367 9.72149,3.964102 2.70019,2.642736 4.05233,5.905118 4.05233,9.787148 v 28.692553 c 0,3.783544 1.32547,6.986428 3.97026,9.631208 2.65094,2.64274 5.87024,3.95795 9.65378,3.95795 3.67685,0 6.83869,-1.31521 9.48758,-3.95795 2.64889,-2.64478 3.97026,-5.849716 3.97026,-9.631208 V 65.705211 c 0,-3.773284 1.3583,-7.031563 4.06054,-9.785096 2.71249,-2.747378 6.01797,-4.126196 9.91436,-4.126196 3.78559,0 7.03361,1.348041 9.74406,4.048227 2.71044,2.69403 4.06259,5.931791 4.06259,9.703023 v 28.692553 c 0,3.783544 1.32547,6.986428 3.97436,9.631208 2.64479,2.64274 5.81279,3.95795 9.48553,3.95795 3.7856,0 7.00489,-1.31521 9.64763,-3.95795 2.65094,-2.64478 3.97436,-5.849716 3.97436,-9.631208 V 65.545169 c 0,-3.771232 1.35214,-7.008993 4.05438,-9.703023 2.69813,-2.698134 5.94205,-4.048227 9.71739,-4.048227 3.78354,0 7.02746,1.348041 9.72354,4.042071 2.70018,2.694031 4.05028,5.927688 4.05028,9.700972 v 28.682294 z"
     id="path15"
     inkscape:connector-curvature="0"
     style="fill:#aaaaaa;fill-opacity:1"
     clip-path="none" /><path
     d="m 269.73544,29.340929 c 0,4.025657 -1.44038,7.48091 -4.33138,10.357552 -2.88895,2.876642 -6.35241,4.319066 -10.39038,4.319066 -4.04823,0 -7.50964,-1.442424 -10.40064,-4.319066 -2.88075,-2.87459 -4.32522,-6.331895 -4.32522,-10.357552 0,-4.031812 1.44447,-7.482962 4.32522,-10.359604 2.891,-2.880745 6.35446,-4.317014 10.40064,-4.317014 4.04002,0 7.50348,1.436269 10.39038,4.317014 2.891,2.876642 4.33138,6.329843 4.33138,10.359604 z"
     id="path17"
     inkscape:connector-curvature="0"
     style="fill:#aaaaaa;fill-opacity:1"
     clip-path="none" /><path
     d="m 269.73544,120.59121 c 0,4.03591 -1.44038,7.49322 -4.33138,10.37397 -2.88895,2.88074 -6.35241,4.31701 -10.39038,4.31701 -4.04823,0 -7.50964,-1.43627 -10.40064,-4.31701 -2.88075,-2.8787 -4.32522,-6.33806 -4.32522,-10.37397 V 66.489003 c 0,-4.035916 1.44447,-7.493221 4.32522,-10.371914 2.891,-2.880746 6.35446,-4.321118 10.40064,-4.321118 4.04002,0 7.50348,1.440372 10.39038,4.321118 2.891,2.876642 4.33138,6.335998 4.33138,10.371914 v 54.102207 z"
     id="path19"
     inkscape:connector-curvature="0"
     style="fill:#aaaaaa;fill-opacity:1"
     clip-path="none" /><path
     d="m 604.2261,67.463615 c 0,3.732247 -1.34189,6.937179 -4.02771,9.60864 -2.68172,2.665305 -5.89896,4.001035 -9.64968,4.001035 h -20.10982 c -3.75687,0 -6.94744,1.309057 -9.57376,3.931274 -2.63247,2.616062 -3.94153,5.796372 -3.94153,9.542982 V 121.652 c 0,3.7384 -1.33573,6.95154 -4.0154,9.62095 -2.67967,2.67966 -5.89075,4.00924 -9.63942,4.00924 -3.74661,0 -6.96385,-1.32958 -9.63941,-4.00514 -2.67967,-2.67146 -4.01745,-5.87434 -4.01745,-9.6189 V 94.568064 c 0,-11.221365 3.99077,-20.813591 11.97848,-28.774625 7.98771,-7.958983 17.61071,-11.943604 28.86696,-11.943604 h 20.09545 c 3.75277,0 6.96796,1.335731 9.64763,4.007191 2.68172,2.669409 4.02566,5.868185 4.02566,9.606589 z"
     id="path21"
     inkscape:connector-curvature="0"
     style="fill:#aaaaaa;fill-opacity:1"
     clip-path="none" /><path
     d="m 475.18963,135.28219 c -11.58864,0 -22.51044,-4.40319 -31.12806,-13.20957 -8.6094,-8.81049 -11.91898,-18.40682 -11.91898,-30.820285 0,0 -0.83919,-39.476883 43.80621,-39.476883 34.93212,0 45.56666,24.537632 45.56666,36.651536 0,9.629158 -4.40524,13.047482 -14.4304,13.047482 h -44.64745 c 0,0 -1.61683,10.21597 18.72279,10.21597 h 25.47942 c 6.5145,0 11.79382,5.27932 11.79382,11.79588 0,6.5145 -5.27932,11.79382 -11.79382,11.79382 H 475.18963 z M 462.73512,82.669601 h 29.31426 c 0,-9.63121 -14.58019,-9.63121 -14.58019,-9.63121 0,0 -14.73407,-0.0021 -14.73407,9.63121 z"
     id="path23"
     inkscape:connector-curvature="0"
     style="fill:#aaaaaa;fill-opacity:1"
     clip-path="none" /><path
     style="fill:#aaaaaa;fill-opacity:1"
     inkscape:connector-curvature="0"
     id="path25"
     d="m 802.97701,68.72548 c -7.60401,1.298797 -18.63251,-0.0513 -24.47607,-2.482694 12.14263,-1.005388 20.36424,-6.524765 23.53224,-14.017987 -4.37652,2.694031 -17.96978,5.628124 -25.4671,2.831502 -0.37343,-1.762507 -0.77969,-3.44089 -1.19211,-4.959232 -5.70814,-21.012617 -25.29064,-37.946229 -45.79441,-35.89852 1.65376,-0.670943 3.33009,-1.294694 5.02489,-1.863046 2.24468,-0.808414 15.49734,-2.9710253 13.4127,-7.6430035 C 746.25259,0.572459 730.06379,7.7907371 727.0189,8.7407266 731.0425,7.232644 737.69858,4.6309451 738.40646,3.1740001e-6 732.24486,0.84535013 726.19407,3.7630282 721.52209,8.0041257 723.21278,6.1882712 724.49106,3.974365 724.7619,1.5860546 708.31867,12.103648 698.71414,33.290669 690.94597,53.858043 684.84593,47.934458 679.42504,43.270688 674.57661,40.675144 660.96693,33.378897 644.68785,25.75436 619.14278,16.258569 c -0.78585,8.459625 4.17749,19.717923 18.47042,27.192678 -3.09414,-0.41857 -8.75714,0.519109 -13.27934,1.594259 1.84048,9.703023 7.86665,17.686628 24.19088,21.544036 -7.45834,0.490384 -11.31985,2.199544 -14.80999,5.851771 3.39575,6.746361 11.69534,14.676618 26.59971,13.045427 -16.58686,7.158776 -6.76483,20.40938 6.732,18.43144 -23.01109,23.80513 -59.3015,22.03852 -80.14177,2.14619 54.40177,74.20998 172.67238,43.88213 190.28924,-27.59483 13.21778,0.106694 20.96953,-4.575543 25.78308,-9.74406 z"
     clip-path="none" /></svg>